<?xml version="1.0" standalone="no"?>
<!DOCTYPE svg PUBLIC "-//W3C//DTD SVG 20010904//EN"
 "http://www.w3.org/TR/2001/REC-SVG-20010904/DTD/svg10.dtd">
<svg version="1.0" xmlns="http://www.w3.org/2000/svg"
 width="125.000000pt" height="125.000000pt" viewBox="0 0 125.000000 125.000000"
 preserveAspectRatio="xMidYMid meet">
<metadata>
Created by potrace 1.14, written by Peter Selinger 2001-2017
</metadata>
<g transform="translate(0.000000,125.000000) scale(0.100000,-0.100000)"
fill="#000000" stroke="none">
<path d="M251 991 c-11 -7 -14 -47 -13 -197 0 -104 0 -197 1 -206 1 -14 10
-18 41 -18 l40 0 0 68 0 67 280 0 c154 0 280 2 281 5 5 32 4 51 -2 62 -6 10
-70 13 -281 13 l-273 0 -3 68 -3 67 281 0 c179 0 280 4 281 10 1 6 2 22 3 38
l1 27 -310 2 c-171 2 -316 -1 -324 -6z"/>
<path d="M930 785 l0 -215 40 0 40 0 1 58 c3 156 -1 354 -6 362 -3 6 -22 10
-41 10 l-34 0 0 -215z"/>
<path d="M17 709 c-14 -8 -17 -24 -17 -92 0 -88 8 -107 47 -107 15 0 24 -7 28
-22 7 -31 14 -110 14 -181 1 -49 4 -58 17 -55 10 2 25 26 37 55 l19 52 464 0
463 -1 19 -51 c21 -55 52 -76 52 -35 1 62 11 205 16 221 3 9 15 17 28 17 38 0
46 19 46 107 0 99 -7 105 -107 101 l-68 -3 1 -102 1 -103 -51 -1 c-61 -1 -839
-1 -846 0 -3 1 -6 43 -5 94 0 50 -1 98 -3 105 -5 15 -129 16 -155 1z"/>
</g>
</svg>
