<svg version="1.0" xmlns="http://www.w3.org/2000/svg" width="166.667" height="166.667" viewBox="0 0 125 125"><path d="M25.1 25.9c-1.1.7-1.4 4.7-1.3 19.7 0 10.4 0 19.7.1 20.6.1 1.4 1 1.8 4.1 1.8h4V54.5h28c15.4 0 28-.2 28.1-.5.5-3.2.4-5.1-.2-6.2-.6-1-7-1.3-28.1-1.3H32.5l-.3-6.8-.3-6.7H60c17.9 0 28-.4 28.1-1 .1-.6.2-2.2.3-3.8l.1-2.7-31-.2c-17.1-.2-31.6.1-32.4.6zM93 46.5V68h8l.1-5.8c.3-15.6-.1-35.4-.6-36.2-.3-.6-2.2-1-4.1-1H93v21.5z"/><path d="M1.7 54.1C.3 54.9 0 56.5 0 63.3 0 72.1.8 74 4.7 74c1.5 0 2.4.7 2.8 2.2.7 3.1 1.4 11 1.4 18.1.1 4.9.4 5.8 1.7 5.5 1-.2 2.5-2.6 3.7-5.5l1.9-5.2h46.4l46.3.1 1.9 5.1c2.1 5.5 5.2 7.6 5.2 3.5.1-6.2 1.1-20.5 1.6-22.1.3-.9 1.5-1.7 2.8-1.7 3.8 0 4.6-1.9 4.6-10.7 0-9.9-.7-10.5-10.7-10.1l-6.8.3.1 10.2.1 10.3-5.1.1c-6.1.1-83.9.1-84.6 0-.3-.1-.6-4.3-.5-9.4 0-5-.1-9.8-.3-10.5-.5-1.5-12.9-1.6-15.5-.1z"/></svg>