<?xml version="1.0" encoding="utf-8"?><svg viewBox="0 0 125 100" xmlns="http://www.w3.org/2000/svg" xmlns:xlink="http://www.w3.org/1999/xlink"><style>:root>svg{display:none}:root>svg:target{display:block}</style><svg fill="none" viewBox="0 0 100 78" id="armchair" xmlns="http://www.w3.org/2000/svg"><path d="M75.897 41.661H24.103a4.512 4.512 0 01-4.506-4.506V4.63A4.511 4.511 0 0124.103.124h51.794a4.512 4.512 0 014.506 4.507v32.524a4.511 4.511 0 01-4.506 4.506zM24.103 2.468a2.165 2.165 0 00-2.163 2.163v32.524a2.165 2.165 0 002.163 2.162h51.794a2.165 2.165 0 002.162-2.162V4.63a2.165 2.165 0 00-2.162-2.163H24.103z" fill="#1E2E36"/><path d="M75.897 70.893H24.103a4.512 4.512 0 01-4.506-4.507V43.824a4.512 4.512 0 014.506-4.506h51.794a4.512 4.512 0 014.506 4.506v22.562a4.511 4.511 0 01-4.506 4.507zM24.103 41.66a2.165 2.165 0 00-2.163 2.163v22.562a2.165 2.165 0 002.163 2.163h51.794a2.165 2.165 0 002.162-2.163V43.824a2.165 2.165 0 00-2.162-2.163H24.103z" fill="#1E2E36"/><path d="M95.494 70.893H82.566a4.511 4.511 0 01-4.506-4.507V26.844a4.511 4.511 0 014.506-4.506h12.928A4.512 4.512 0 01100 26.844v39.542a4.512 4.512 0 01-4.506 4.507zM82.566 24.68a2.165 2.165 0 00-2.163 2.163v39.542a2.165 2.165 0 002.163 2.163h12.927a2.165 2.165 0 002.163-2.163V26.844a2.165 2.165 0 00-2.163-2.163H82.566zM17.434 70.893H4.507A4.512 4.512 0 010 66.386V26.844a4.512 4.512 0 014.506-4.506h12.928a4.512 4.512 0 014.506 4.506v39.542a4.511 4.511 0 01-4.506 4.507zM4.506 24.68a2.165 2.165 0 00-2.162 2.163v39.542a2.165 2.165 0 002.162 2.163h12.928a2.165 2.165 0 002.162-2.163V26.844a2.165 2.165 0 00-2.162-2.163H4.506z" fill="#1E2E36"/><path d="M79.231 56.277H20.77a1.172 1.172 0 010-2.344H79.23a1.172 1.172 0 010 2.344zM10.97 77.876A4.22 4.22 0 016.87 74.67l-1.164-4.667a1.172 1.172 0 011.137-1.455h8.257a1.172 1.172 0 011.137 1.455l-1.164 4.667a4.22 4.22 0 01-4.102 3.205zm-2.628-6.983l.8 3.211a1.884 1.884 0 003.656 0l.8-3.211H8.343zM89.03 77.876a4.22 4.22 0 01-4.102-3.204l-1.164-4.668a1.172 1.172 0 011.137-1.455h8.257a1.172 1.172 0 011.137 1.455l-1.164 4.668a4.22 4.22 0 01-4.101 3.204zM86.4 70.893l.801 3.211a1.884 1.884 0 003.655 0l.801-3.211h-5.257z" fill="#1E2E36"/></svg><svg fill="none" viewBox="0 0 100 78" id="armchair2" xmlns="http://www.w3.org/2000/svg"><path d="M75.897 41.661H24.103a4.512 4.512 0 01-4.506-4.506V4.63A4.511 4.511 0 0124.103.124h51.794a4.512 4.512 0 014.506 4.507v32.524a4.511 4.511 0 01-4.506 4.506zM24.103 2.468a2.165 2.165 0 00-2.163 2.163v32.524a2.165 2.165 0 002.163 2.162h51.794a2.165 2.165 0 002.162-2.162V4.63a2.165 2.165 0 00-2.162-2.163H24.103z" fill="#44C697"/><path d="M75.897 70.893H24.103a4.512 4.512 0 01-4.506-4.507V43.824a4.512 4.512 0 014.506-4.506h51.794a4.512 4.512 0 014.506 4.506v22.562a4.511 4.511 0 01-4.506 4.507zM24.103 41.66a2.165 2.165 0 00-2.163 2.163v22.562a2.165 2.165 0 002.163 2.163h51.794a2.165 2.165 0 002.162-2.163V43.824a2.165 2.165 0 00-2.162-2.163H24.103z" fill="#44C697"/><path d="M95.494 70.893H82.566a4.511 4.511 0 01-4.506-4.507V26.844a4.511 4.511 0 014.506-4.506h12.928A4.512 4.512 0 01100 26.844v39.542a4.512 4.512 0 01-4.506 4.507zM82.566 24.68a2.165 2.165 0 00-2.163 2.163v39.542a2.165 2.165 0 002.163 2.163h12.927a2.165 2.165 0 002.163-2.163V26.844a2.165 2.165 0 00-2.163-2.163H82.566zM17.434 70.893H4.507A4.512 4.512 0 010 66.386V26.844a4.512 4.512 0 014.506-4.506h12.928a4.512 4.512 0 014.506 4.506v39.542a4.511 4.511 0 01-4.506 4.507zM4.506 24.68a2.165 2.165 0 00-2.162 2.163v39.542a2.165 2.165 0 002.162 2.163h12.928a2.165 2.165 0 002.162-2.163V26.844a2.165 2.165 0 00-2.162-2.163H4.506z" fill="#44C697"/><path d="M79.231 56.277H20.77a1.172 1.172 0 010-2.344H79.23a1.172 1.172 0 010 2.344zM10.97 77.876A4.22 4.22 0 016.87 74.67l-1.164-4.667a1.172 1.172 0 011.137-1.455h8.257a1.172 1.172 0 011.137 1.455l-1.164 4.667a4.22 4.22 0 01-4.102 3.205zm-2.628-6.983l.8 3.211a1.884 1.884 0 003.656 0l.8-3.211H8.343zM89.03 77.876a4.22 4.22 0 01-4.102-3.204l-1.164-4.668a1.172 1.172 0 011.137-1.455h8.257a1.172 1.172 0 011.137 1.455l-1.164 4.668a4.22 4.22 0 01-4.101 3.204zM86.4 70.893l.801 3.211a1.884 1.884 0 003.655 0l.801-3.211h-5.257z" fill="#44C697"/></svg><svg fill="none" viewBox="0 0 16 18" id="arrow" xmlns="http://www.w3.org/2000/svg"><path d="M8.707.565a1 1 0 00-1.414 0L.929 6.93a1 1 0 001.414 1.415L8 2.687l5.657 5.657a1 1 0 101.414-1.415L8.707.565zM9 17.182V1.272H7v15.91h2z" fill="#fff"/></svg><svg fill="none" viewBox="0 0 82 100" id="bed" xmlns="http://www.w3.org/2000/svg"><path d="M75.685 33.76H6.315a1.172 1.172 0 01-1.172-1.172V8.248c0-.648.525-1.173 1.172-1.173h69.37c.647 0 1.172.525 1.172 1.172v24.341c0 .647-.525 1.172-1.172 1.172zM7.487 31.416h67.026V9.42H7.487v21.997z" fill="#1E2E36"/><path d="M70.307 33.76H11.693a1.172 1.172 0 01-1.172-1.172V13.625c0-.647.525-1.171 1.172-1.171h58.614c.647 0 1.172.524 1.172 1.171v18.963c0 .647-.525 1.172-1.172 1.172zm-57.442-2.344h56.27V14.797h-56.27v16.62z" fill="#1E2E36"/><path d="M37.466 33.76H15.227a4.712 4.712 0 01-4.706-4.706V17.16a4.712 4.712 0 014.706-4.707h22.239a4.711 4.711 0 014.706 4.707v11.894a4.711 4.711 0 01-4.706 4.706zM15.227 14.797a2.365 2.365 0 00-2.362 2.363v11.894a2.365 2.365 0 002.362 2.362h22.239a2.365 2.365 0 002.362-2.362V17.16a2.365 2.365 0 00-2.362-2.363H15.227z" fill="#1E2E36"/><path d="M66.772 33.76H44.534a4.712 4.712 0 01-4.706-4.706V17.16a4.712 4.712 0 014.706-4.707h22.238a4.711 4.711 0 014.706 4.707v11.894a4.711 4.711 0 01-4.706 4.706zM44.534 14.797a2.365 2.365 0 00-2.362 2.363v11.894a2.365 2.365 0 002.362 2.362h22.238a2.365 2.365 0 002.363-2.362V17.16a2.365 2.365 0 00-2.363-2.363H44.534z" fill="#1E2E36"/><path d="M76.533 92.925H5.467A4.712 4.712 0 01.76 88.219V36.122a4.712 4.712 0 014.706-4.706h71.066a4.711 4.711 0 014.706 4.706V88.22a4.712 4.712 0 01-4.706 4.706zM5.467 33.76a2.365 2.365 0 00-2.363 2.362V88.22a2.365 2.365 0 002.363 2.362h71.066a2.365 2.365 0 002.362-2.362V36.122a2.365 2.365 0 00-2.362-2.362H5.467zM76.984 9.419H5.016A4.26 4.26 0 01.76 5.164v-.909A4.26 4.26 0 015.016 0h71.968a4.26 4.26 0 014.255 4.255v.909a4.26 4.26 0 01-4.255 4.255zM5.016 2.344a1.914 1.914 0 00-1.912 1.911v.909a1.914 1.914 0 001.912 1.911h71.968a1.914 1.914 0 001.912-1.911v-.909a1.914 1.914 0 00-1.912-1.911H5.016z" fill="#1E2E36"/><path d="M76.984 100H5.016A4.26 4.26 0 01.76 95.745v-.909a4.26 4.26 0 014.255-4.255h71.968a4.26 4.26 0 014.255 4.255v.909A4.26 4.26 0 0176.984 100zM5.016 92.925a1.914 1.914 0 00-1.912 1.911v.909a1.913 1.913 0 001.912 1.911h71.968a1.914 1.914 0 001.912-1.911v-.909a1.914 1.914 0 00-1.912-1.911H5.016z" fill="#1E2E36"/></svg><svg fill="none" viewBox="0 0 82 100" id="bed2" xmlns="http://www.w3.org/2000/svg"><path d="M75.685 33.76H6.315a1.172 1.172 0 01-1.172-1.172V8.248c0-.648.525-1.173 1.172-1.173h69.37c.647 0 1.172.525 1.172 1.172v24.341c0 .647-.525 1.172-1.172 1.172zM7.487 31.416h67.026V9.42H7.487v21.997z" fill="#44C697"/><path d="M70.307 33.76H11.693a1.172 1.172 0 01-1.172-1.172V13.625c0-.647.525-1.171 1.172-1.171h58.614c.647 0 1.172.524 1.172 1.171v18.963c0 .647-.525 1.172-1.172 1.172zm-57.442-2.344h56.27V14.797h-56.27v16.62z" fill="#44C697"/><path d="M37.466 33.76H15.227a4.712 4.712 0 01-4.706-4.706V17.16a4.712 4.712 0 014.706-4.707h22.239a4.711 4.711 0 014.706 4.707v11.894a4.711 4.711 0 01-4.706 4.706zM15.227 14.797a2.365 2.365 0 00-2.362 2.363v11.894a2.365 2.365 0 002.362 2.362h22.239a2.365 2.365 0 002.362-2.362V17.16a2.365 2.365 0 00-2.362-2.363H15.227z" fill="#44C697"/><path d="M66.772 33.76H44.534a4.712 4.712 0 01-4.706-4.706V17.16a4.712 4.712 0 014.706-4.707h22.238a4.711 4.711 0 014.706 4.707v11.894a4.711 4.711 0 01-4.706 4.706zM44.534 14.797a2.365 2.365 0 00-2.362 2.363v11.894a2.365 2.365 0 002.362 2.362h22.238a2.365 2.365 0 002.363-2.362V17.16a2.365 2.365 0 00-2.363-2.363H44.534z" fill="#44C697"/><path d="M76.533 92.925H5.467A4.712 4.712 0 01.76 88.219V36.122a4.712 4.712 0 014.706-4.706h71.066a4.711 4.711 0 014.706 4.706V88.22a4.712 4.712 0 01-4.706 4.706zM5.467 33.76a2.365 2.365 0 00-2.363 2.362V88.22a2.365 2.365 0 002.363 2.362h71.066a2.365 2.365 0 002.362-2.362V36.122a2.365 2.365 0 00-2.362-2.362H5.467zM76.984 9.419H5.016A4.26 4.26 0 01.76 5.164v-.909A4.26 4.26 0 015.016 0h71.968a4.26 4.26 0 014.255 4.255v.909a4.26 4.26 0 01-4.255 4.255zM5.016 2.344a1.914 1.914 0 00-1.912 1.911v.909a1.914 1.914 0 001.912 1.911h71.968a1.914 1.914 0 001.912-1.911v-.909a1.914 1.914 0 00-1.912-1.911H5.016z" fill="#44C697"/><path d="M76.984 100H5.016A4.26 4.26 0 01.76 95.745v-.909a4.26 4.26 0 014.255-4.255h71.968a4.26 4.26 0 014.255 4.255v.909A4.26 4.26 0 0176.984 100zM5.016 92.925a1.914 1.914 0 00-1.912 1.911v.909a1.913 1.913 0 001.912 1.911h71.968a1.914 1.914 0 001.912-1.911v-.909a1.914 1.914 0 00-1.912-1.911H5.016z" fill="#44C697"/></svg><svg fill="none" viewBox="0 0 100 88" id="chest" xmlns="http://www.w3.org/2000/svg"><path d="M93.545 36.075H6.455a1.172 1.172 0 01-1.172-1.172V9.43c0-.648.525-1.172 1.172-1.172h87.09c.647 0 1.172.524 1.172 1.172v25.472c0 .647-.525 1.172-1.172 1.172zM7.627 33.73h84.746V10.602H7.627v23.129z" fill="#1E2E36"/><path d="M93.545 61.547H6.455a1.172 1.172 0 01-1.172-1.172V34.903c0-.648.525-1.172 1.172-1.172h87.09c.647 0 1.172.524 1.172 1.172v25.472c0 .647-.525 1.172-1.172 1.172zM7.627 59.203h84.746V36.075H7.627v23.128z" fill="#1E2E36"/><path d="M93.545 87.019H6.455a1.172 1.172 0 01-1.172-1.172V60.375c0-.647.525-1.172 1.172-1.172h87.09c.647 0 1.172.524 1.172 1.172v25.472c0 .647-.525 1.172-1.172 1.172zM7.627 84.675h84.746V61.547H7.627v23.128zM52.192 23.339h-4.384a1.172 1.172 0 110-2.344h4.384a1.172 1.172 0 010 2.344zM52.192 48.81h-4.384a1.172 1.172 0 110-2.343h4.384a1.172 1.172 0 010 2.344z" fill="#1E2E36"/><path d="M52.192 74.283h-4.384a1.172 1.172 0 110-2.344h4.384a1.172 1.172 0 010 2.344zM96.875 10.603H3.125A3.129 3.129 0 010 7.478V4.106A3.129 3.129 0 013.125.981h93.75A3.129 3.129 0 01100 4.106v3.372a3.129 3.129 0 01-3.125 3.125zM3.125 3.325c-.431 0-.78.35-.781.781v3.372c0 .43.35.78.781.78h93.75c.431 0 .78-.35.781-.78V4.106c0-.431-.35-.78-.781-.781H3.125z" fill="#1E2E36"/></svg><svg fill="none" viewBox="0 0 100 88" id="chest2" xmlns="http://www.w3.org/2000/svg"><path d="M93.545 36.075H6.455a1.172 1.172 0 01-1.172-1.172V9.43c0-.648.525-1.172 1.172-1.172h87.09c.647 0 1.172.524 1.172 1.172v25.472c0 .647-.525 1.172-1.172 1.172zM7.627 33.73h84.746V10.602H7.627v23.129z" fill="#44C697"/><path d="M93.545 61.547H6.455a1.172 1.172 0 01-1.172-1.172V34.903c0-.648.525-1.172 1.172-1.172h87.09c.647 0 1.172.524 1.172 1.172v25.472c0 .647-.525 1.172-1.172 1.172zM7.627 59.203h84.746V36.075H7.627v23.128z" fill="#44C697"/><path d="M93.545 87.019H6.455a1.172 1.172 0 01-1.172-1.172V60.375c0-.647.525-1.172 1.172-1.172h87.09c.647 0 1.172.524 1.172 1.172v25.472c0 .647-.525 1.172-1.172 1.172zM7.627 84.675h84.746V61.547H7.627v23.128zM52.192 23.339h-4.384a1.172 1.172 0 110-2.344h4.384a1.172 1.172 0 010 2.344zM52.192 48.81h-4.384a1.172 1.172 0 110-2.343h4.384a1.172 1.172 0 010 2.344z" fill="#44C697"/><path d="M52.192 74.283h-4.384a1.172 1.172 0 110-2.344h4.384a1.172 1.172 0 010 2.344zM96.875 10.603H3.125A3.129 3.129 0 010 7.478V4.106A3.129 3.129 0 013.125.981h93.75A3.129 3.129 0 01100 4.106v3.372a3.129 3.129 0 01-3.125 3.125zM3.125 3.325c-.431 0-.78.35-.781.781v3.372c0 .43.35.78.781.78h93.75c.431 0 .78-.35.781-.78V4.106c0-.431-.35-.78-.781-.781H3.125z" fill="#44C697"/></svg><svg fill="none" viewBox="0 0 68 100" id="cupboard" xmlns="http://www.w3.org/2000/svg"><path d="M66.765 100H1.235a1.172 1.172 0 01-1.172-1.172V1.172C.063.525.588 0 1.235 0h65.53c.647 0 1.172.525 1.172 1.172v97.656c0 .647-.525 1.172-1.172 1.172zM2.407 97.656h63.186V2.344H2.407v95.312z" fill="#1E2E36"/><path d="M34 71.494c-.647 0-1.172-.375-1.172-.838V.838C32.828.375 33.352 0 34 0c.647 0 1.172.375 1.172.838v69.818c0 .463-.525.838-1.172.838zM34 100H1.235a1.172 1.172 0 01-1.172-1.172V84.575c0-.647.525-1.172 1.172-1.172H34c.647 0 1.172.525 1.172 1.172v14.253c0 .647-.525 1.172-1.172 1.172zM2.407 97.656h30.421V85.747H2.407v11.91z" fill="#1E2E36"/><path d="M34 85.747H1.235a1.172 1.172 0 01-1.172-1.172V70.322c0-.647.525-1.172 1.172-1.172H34c.647 0 1.172.525 1.172 1.172v14.253c0 .647-.525 1.172-1.172 1.172zM2.407 83.403h30.42V71.494H2.408v11.91z" fill="#1E2E36"/><path d="M19.267 78.62h-3.299a1.172 1.172 0 010-2.343h3.299a1.172 1.172 0 010 2.344zM27.094 38.354a1.172 1.172 0 01-1.172-1.172v-2.87a1.172 1.172 0 112.343 0v2.87c0 .647-.524 1.172-1.171 1.172zM40.906 52.607a1.172 1.172 0 01-1.172-1.172v-2.87a1.172 1.172 0 112.344 0v2.87c0 .647-.525 1.172-1.172 1.172zM19.267 92.874h-3.299a1.172 1.172 0 110-2.344h3.299a1.172 1.172 0 010 2.344z" fill="#1E2E36"/></svg><svg fill="none" viewBox="0 0 68 100" id="cupboard2" xmlns="http://www.w3.org/2000/svg"><path d="M66.765 100H1.235a1.172 1.172 0 01-1.172-1.172V1.172C.063.525.588 0 1.235 0h65.53c.647 0 1.172.525 1.172 1.172v97.656c0 .647-.525 1.172-1.172 1.172zM2.407 97.656h63.186V2.344H2.407v95.312z" fill="#44C697"/><path d="M34 71.494c-.647 0-1.172-.375-1.172-.838V.838C32.828.375 33.352 0 34 0c.647 0 1.172.375 1.172.838v69.818c0 .463-.525.838-1.172.838zM34 100H1.235a1.172 1.172 0 01-1.172-1.172V84.575c0-.647.525-1.172 1.172-1.172H34c.647 0 1.172.525 1.172 1.172v14.253c0 .647-.525 1.172-1.172 1.172zM2.407 97.656h30.421V85.747H2.407v11.91z" fill="#44C697"/><path d="M34 85.747H1.235a1.172 1.172 0 01-1.172-1.172V70.322c0-.647.525-1.172 1.172-1.172H34c.647 0 1.172.525 1.172 1.172v14.253c0 .647-.525 1.172-1.172 1.172zM2.407 83.403h30.42V71.494H2.408v11.91z" fill="#44C697"/><path d="M19.267 78.62h-3.299a1.172 1.172 0 010-2.343h3.299a1.172 1.172 0 010 2.344zM27.094 38.354a1.172 1.172 0 01-1.172-1.172v-2.87a1.172 1.172 0 112.343 0v2.87c0 .647-.524 1.172-1.171 1.172zM40.906 52.607a1.172 1.172 0 01-1.172-1.172v-2.87a1.172 1.172 0 112.344 0v2.87c0 .647-.525 1.172-1.172 1.172zM19.267 92.874h-3.299a1.172 1.172 0 110-2.344h3.299a1.172 1.172 0 010 2.344z" fill="#44C697"/></svg><svg fill="none" viewBox="0 0 11 22" id="facebook" xmlns="http://www.w3.org/2000/svg"><path fill-rule="evenodd" clip-rule="evenodd" d="M7.085 21.76V10.878h3.003l.398-3.75H7.085l.005-1.876c0-.978.093-1.502 1.497-1.502h1.878V0H7.461C3.853 0 2.583 1.819 2.583 4.878v2.251H.333v3.75h2.25v10.88h4.502z" fill="#1E2E36"/></svg><svg fill="none" viewBox="0 0 11 22" id="facebook2" xmlns="http://www.w3.org/2000/svg"><path fill-rule="evenodd" clip-rule="evenodd" d="M7.085 21.76V10.878h3.003l.398-3.75H7.085l.005-1.876c0-.978.093-1.502 1.497-1.502h1.878V0H7.461C3.853 0 2.583 1.819 2.583 4.878v2.251H.333v3.75h2.25v10.88h4.502z" fill="#fff"/></svg><svg fill="none" viewBox="0 0 22 22" id="insta" xmlns="http://www.w3.org/2000/svg"><path fill-rule="evenodd" clip-rule="evenodd" d="M6.603.398C7.74.346 8.104.333 11 .333h-.003c2.898 0 3.26.013 4.398.065 1.135.052 1.91.232 2.59.495a5.212 5.212 0 011.89 1.23 5.235 5.235 0 011.23 1.89c.263.678.443 1.453.496 2.589.051 1.138.065 1.501.065 4.398s-.014 3.26-.065 4.398c-.053 1.135-.233 1.91-.495 2.588a5.237 5.237 0 01-1.232 1.89 5.219 5.219 0 01-1.888 1.23c-.678.265-1.454.444-2.59.496-1.138.052-1.5.065-4.397.065-2.897 0-3.26-.013-4.398-.065-1.135-.052-1.91-.231-2.59-.495a5.223 5.223 0 01-1.888-1.231 5.227 5.227 0 01-1.23-1.89C.63 17.308.45 16.533.397 15.397.346 14.26.333 13.897.333 11c0-2.897.014-3.26.065-4.398.05-1.136.23-1.91.495-2.59a5.236 5.236 0 011.231-1.889 5.223 5.223 0 011.89-1.23C4.692.63 5.467.45 6.603.398zm4.043 1.857h-.602v-.002c-1.988.002-2.37.015-3.353.06-1.04.048-1.605.221-1.98.368a3.31 3.31 0 00-1.228.798 3.305 3.305 0 00-.798 1.227c-.146.376-.32.94-.367 1.98-.051 1.125-.061 1.46-.061 4.309s.01 3.186.06 4.31c.048 1.04.222 1.605.368 1.98.194.499.425.853.798 1.227.374.373.73.604 1.227.797.376.146.94.32 1.98.368 1.125.051 1.463.063 4.311.063s3.186-.012 4.31-.063c1.04-.047 1.605-.22 1.98-.367a3.3 3.3 0 001.227-.798c.373-.373.604-.728.798-1.225.146-.376.32-.94.367-1.98.051-1.125.062-1.463.062-4.31 0-2.846-.01-3.184-.062-4.308-.047-1.04-.221-1.605-.367-1.98a3.311 3.311 0 00-.798-1.227 3.299 3.299 0 00-1.226-.798c-.376-.146-.94-.32-1.98-.367-1.125-.051-1.463-.061-4.31-.061h-.357zM5.522 11a5.478 5.478 0 1110.956 0 5.478 5.478 0 01-10.956 0zm9.034 0a3.556 3.556 0 10-7.112 0 3.556 3.556 0 007.112 0zm.858-5.694a1.28 1.28 0 112.56 0 1.28 1.28 0 01-2.56 0z" fill="#1E2E36"/></svg><svg fill="none" viewBox="0 0 22 22" id="instagram2" xmlns="http://www.w3.org/2000/svg"><path fill-rule="evenodd" clip-rule="evenodd" d="M6.603.398C7.74.346 8.104.333 11 .333h-.003c2.898 0 3.26.013 4.398.065 1.135.052 1.91.232 2.59.496a5.213 5.213 0 011.89 1.23 5.234 5.234 0 011.23 1.89c.263.677.443 1.452.496 2.588.051 1.138.065 1.501.065 4.398s-.014 3.26-.065 4.398c-.053 1.135-.233 1.91-.495 2.589a5.235 5.235 0 01-1.232 1.889 5.218 5.218 0 01-1.888 1.231c-.678.264-1.454.444-2.59.496-1.138.051-1.5.064-4.397.064-2.897 0-3.26-.013-4.398-.064-1.136-.052-1.91-.232-2.59-.496a5.222 5.222 0 01-1.888-1.231 5.227 5.227 0 01-1.23-1.89C.63 17.308.45 16.533.397 15.397.346 14.26.333 13.897.333 11c0-2.897.014-3.26.065-4.398.05-1.135.23-1.91.495-2.59a5.236 5.236 0 011.231-1.888 5.223 5.223 0 011.89-1.23C4.692.63 5.467.45 6.603.398zm4.043 1.858h-.602v-.003c-1.988.002-2.37.016-3.353.06-1.04.048-1.605.221-1.98.368a3.31 3.31 0 00-1.228.798 3.305 3.305 0 00-.798 1.227c-.146.376-.32.94-.367 1.98-.051 1.125-.062 1.46-.062 4.31 0 2.848.01 3.185.062 4.31.047 1.04.221 1.604.367 1.98.194.498.425.853.798 1.226.374.373.73.604 1.227.798.376.146.94.32 1.98.367 1.125.052 1.463.063 4.311.063s3.186-.011 4.31-.063c1.04-.047 1.605-.22 1.98-.367a3.297 3.297 0 001.226-.798c.374-.373.605-.727.799-1.225.146-.376.32-.94.367-1.98.051-1.125.062-1.463.062-4.31 0-2.846-.01-3.184-.062-4.308-.047-1.04-.221-1.605-.367-1.98a3.31 3.31 0 00-.799-1.227 3.299 3.299 0 00-1.225-.798c-.376-.146-.94-.32-1.98-.367-1.125-.051-1.463-.061-4.311-.061h-.355zM5.522 11a5.478 5.478 0 1110.955 0 5.478 5.478 0 01-10.955 0zm9.034 0a3.556 3.556 0 10-7.112 0 3.556 3.556 0 007.112 0zm.858-5.693a1.28 1.28 0 112.56 0 1.28 1.28 0 01-2.56 0z" fill="#fff"/></svg><svg fill="none" viewBox="0 0 100 94" id="kitchen" xmlns="http://www.w3.org/2000/svg"><path d="M67.788 88.13H32.212a1.172 1.172 0 01-1.172-1.171V59.713c0-.647.525-1.172 1.172-1.172h35.576c.647 0 1.172.524 1.172 1.172v27.245c0 .647-.525 1.171-1.172 1.171zm-34.404-2.343h33.232V60.886H33.384v24.9z" fill="#1E2E36"/><path d="M67.788 93.145H32.212a1.172 1.172 0 01-1.172-1.172v-5.015c0-.647.525-1.172 1.172-1.172h35.576c.647 0 1.172.525 1.172 1.172v5.015c0 .647-.525 1.172-1.172 1.172zM33.384 90.8h33.232v-2.67H33.384v2.67zM67.788 60.886H32.212a1.172 1.172 0 01-1.172-1.172V48.162c0-.647.525-1.172 1.172-1.172h35.576c.647 0 1.172.525 1.172 1.172v11.552c0 .647-.525 1.172-1.172 1.172zm-34.404-2.344h33.232v-9.208H33.384v9.208z" fill="#1E2E36"/><path d="M50 57.736a3.798 3.798 0 110-7.596 3.798 3.798 0 010 7.596zm0-5.252a1.454 1.454 0 100 2.908 1.454 1.454 0 000-2.908zM59.867 57.736a3.798 3.798 0 110-7.596 3.798 3.798 0 010 7.596zm0-5.252a1.454 1.454 0 100 2.908 1.454 1.454 0 000-2.908zM40.133 57.736a3.798 3.798 0 110-7.596 3.798 3.798 0 010 7.596zm0-5.252a1.454 1.454 0 100 2.908 1.454 1.454 0 000-2.908zM60.909 67.737H39.092a2.756 2.756 0 010-5.512h21.817a2.756 2.756 0 11.002 5.512h-.002zm-21.817-3.169a.412.412 0 000 .825h21.817a.412.412 0 100-.825H39.092z" fill="#1E2E36"/><path d="M59.867 84.389H40.133a1.172 1.172 0 01-1.172-1.172V66.565c0-.647.525-1.172 1.172-1.172h19.734c.647 0 1.172.525 1.172 1.172v16.652c0 .647-.525 1.172-1.172 1.172zm-18.562-2.344h17.39V67.737h-17.39v14.308zM42.191 49.334a1.172 1.172 0 01-1.172-1.172v-2.908a1.172 1.172 0 012.344 0v2.908c0 .648-.524 1.172-1.172 1.172zM47.747 49.334a1.172 1.172 0 01-1.172-1.172v-1.736h-1.563a1.172 1.172 0 010-2.344h2.735c.647 0 1.172.525 1.172 1.172v2.908c0 .648-.525 1.172-1.172 1.172zM36.636 49.334a1.172 1.172 0 01-1.172-1.172v-2.908c0-.647.524-1.172 1.172-1.172h2.734a1.172 1.172 0 010 2.344h-1.563v1.736c0 .648-.524 1.172-1.171 1.172zM57.809 49.334a1.172 1.172 0 01-1.172-1.172v-2.908a1.172 1.172 0 012.344 0v2.908c0 .648-.525 1.172-1.172 1.172zM52.253 49.334a1.172 1.172 0 01-1.172-1.172v-2.908c0-.647.525-1.172 1.172-1.172h2.735a1.172 1.172 0 010 2.344h-1.563v1.736c0 .648-.524 1.172-1.172 1.172zM63.364 49.334a1.172 1.172 0 01-1.171-1.172v-1.736H60.63a1.172 1.172 0 010-2.344h2.734c.648 0 1.172.525 1.172 1.172v2.908c0 .648-.524 1.172-1.172 1.172zM73.452 53.602h-2.098a1.172 1.172 0 010-2.344h2.098a1.172 1.172 0 010 2.344z" fill="#1E2E36"/><path d="M77.018 93.145h-9.23a1.172 1.172 0 01-1.172-1.172v-43.81c0-.648.525-1.172 1.172-1.172h9.23c.647 0 1.172.524 1.172 1.171v43.81c0 .648-.525 1.173-1.172 1.173zM68.96 90.8h6.886V49.334H68.96v41.467z" fill="#1E2E36"/><path d="M98.828 71.24h-21.81a1.172 1.172 0 01-1.172-1.172V48.162c0-.647.525-1.172 1.172-1.172h21.81c.647 0 1.172.525 1.172 1.172v21.906c0 .647-.525 1.172-1.172 1.172zM78.19 68.896h19.466V49.334H78.19v19.562z" fill="#1E2E36"/><path d="M90.734 53.602h-5.621a1.172 1.172 0 010-2.344h5.62a1.172 1.172 0 010 2.344zM19.502 53.602h-5.62a1.172 1.172 0 010-2.344h5.62a1.172 1.172 0 010 2.344zM98.828 93.145h-21.81a1.172 1.172 0 01-1.172-1.172V70.068c0-.647.525-1.172 1.172-1.172h21.81c.647 0 1.172.524 1.172 1.172v21.905c0 .647-.525 1.172-1.172 1.172zM78.19 90.8h19.466V71.24H78.19V90.8z" fill="#1E2E36"/><path d="M90.734 75.507h-5.621a1.172 1.172 0 010-2.344h5.62a1.172 1.172 0 010 2.344zM16.692 93.145H1.172A1.172 1.172 0 010 91.973v-32.26c0-.646.525-1.171 1.172-1.171h15.52c.647 0 1.172.524 1.172 1.172v32.259c0 .647-.525 1.172-1.172 1.172zM2.344 90.8H15.52V60.886H2.344V90.8z" fill="#1E2E36"/><path d="M32.212 93.145h-15.52a1.172 1.172 0 01-1.172-1.172v-32.26c0-.646.525-1.171 1.172-1.171h15.52c.647 0 1.172.524 1.172 1.172v32.259c0 .647-.525 1.172-1.172 1.172zM17.864 90.8H31.04V60.886H17.864V90.8z" fill="#1E2E36"/><path d="M20.398 78.966a1.172 1.172 0 01-1.172-1.172v-3.901a1.172 1.172 0 012.343 0v3.901c0 .647-.524 1.172-1.171 1.172zM12.986 78.966a1.172 1.172 0 01-1.171-1.172v-3.901a1.172 1.172 0 012.343 0v3.901c0 .647-.524 1.172-1.171 1.172zM32.212 60.886H1.172A1.172 1.172 0 010 59.714V48.162c0-.647.525-1.172 1.172-1.172h31.04c.647 0 1.172.525 1.172 1.172v11.552c0 .647-.525 1.172-1.172 1.172zM2.344 58.542H31.04v-9.208H2.344v9.208zM66.467 24.777H33.533a2.496 2.496 0 01-2.493-2.493V18.92a2.495 2.495 0 012.493-2.493h32.934a2.496 2.496 0 012.493 2.493v3.365a2.496 2.496 0 01-2.493 2.493zM33.533 18.77a.15.15 0 00-.15.149v3.365a.15.15 0 00.15.15h32.934a.15.15 0 00.15-.15V18.92a.15.15 0 00-.15-.15H33.533z" fill="#1E2E36"/><path d="M64.024 18.77H35.976a2.47 2.47 0 01-1.522-4.414l.9-.705A14.668 14.668 0 0041.02 2.028c0-.648.525-1.172 1.172-1.172h15.618c.647 0 1.172.524 1.172 1.172a14.667 14.667 0 005.664 11.623l.9.705a2.469 2.469 0 01-1.52 4.414zM43.324 3.2a16.984 16.984 0 01-6.525 12.297l-.9.704a.126.126 0 00.077.225h28.048a.126.126 0 00.078-.224l-.9-.705A16.984 16.984 0 0156.675 3.2H43.324zM95.2 24.777H76.552a2.937 2.937 0 010-5.874H95.2a2.937 2.937 0 110 5.874zm-18.648-3.53a.593.593 0 000 1.186H95.2a.593.593 0 000-1.186H76.552zM23.448 24.777H4.8a2.937 2.937 0 010-5.874h18.648a2.937 2.937 0 110 5.874zM4.8 21.247a.593.593 0 100 1.186h18.648a.593.593 0 100-1.186H4.8z" fill="#1E2E36"/><path d="M21.577 21.247H16.81a1.172 1.172 0 01-1.171-1.172v-4.029c0-.647.524-1.171 1.171-1.171h4.767c.647 0 1.172.524 1.172 1.171v4.03c0 .646-.524 1.171-1.172 1.171zm-3.595-2.344h2.424v-1.685h-2.424v1.685z" fill="#1E2E36"/><path d="M22.7 17.218h-7.013a1.172 1.172 0 010-2.344h7.014a1.172 1.172 0 010 2.344zM11.438 21.247H6.67A1.172 1.172 0 015.5 20.075v-4.029c0-.647.524-1.171 1.171-1.171h4.768c.647 0 1.171.524 1.171 1.171v4.03c0 .646-.524 1.171-1.171 1.171zm-3.596-2.344h2.424v-1.685H7.842v1.685z" fill="#1E2E36"/><path d="M12.56 17.218H5.548a1.172 1.172 0 010-2.344h7.013a1.172 1.172 0 110 2.344zM21.577 17.218H16.81a1.172 1.172 0 01-1.171-1.172v-4.028c0-.648.524-1.172 1.171-1.172h4.767c.647 0 1.172.524 1.172 1.171v4.03c0 .646-.524 1.171-1.172 1.171zm-3.595-2.344h2.424V13.19h-2.424v1.685z" fill="#1E2E36"/><path d="M22.7 13.19h-7.013a1.172 1.172 0 010-2.344h7.014a1.172 1.172 0 010 2.343zM11.438 17.218H6.67A1.172 1.172 0 015.5 16.046v-4.028c0-.648.524-1.172 1.171-1.172h4.768c.647 0 1.171.524 1.171 1.171v4.03c0 .646-.524 1.171-1.171 1.171zm-3.596-2.344h2.424V13.19H7.842v1.685z" fill="#1E2E36"/><path d="M12.56 13.19H5.548a1.172 1.172 0 010-2.344h7.013a1.172 1.172 0 110 2.343zM85.876 21.247A7.564 7.564 0 0179.471 9.66c.215-.34.59-.548.992-.548H91.29c.402 0 .776.207.991.548a7.564 7.564 0 01-6.404 11.587zm-4.721-9.79a5.22 5.22 0 109.443 0h-9.443z" fill="#1E2E36"/><path d="M85.767 11.456a1.172 1.172 0 01-1.172-1.172v-7.54a1.172 1.172 0 012.344 0v7.54c0 .647-.525 1.172-1.172 1.172z" fill="#1E2E36"/><path d="M85.767 11.456a1.172 1.172 0 01-.829-2L88.993 5.4a1.172 1.172 0 011.657 1.657l-4.055 4.055c-.22.22-.517.344-.828.343z" fill="#1E2E36"/><path d="M85.767 11.456c-.31 0-.61-.123-.829-.343l-4.055-4.055a1.172 1.172 0 111.64-1.675l.017.017 4.056 4.056a1.172 1.172 0 01-.83 2zM60.857 46.426h-5.715a5.877 5.877 0 01-5.87-5.87V37.8c0-.647.525-1.172 1.172-1.172h15.111c.648 0 1.172.525 1.172 1.172v2.755a5.877 5.877 0 01-5.87 5.87zm-9.241-7.453v1.583a3.53 3.53 0 003.526 3.527h5.715a3.53 3.53 0 003.527-3.527v-1.583H51.616z" fill="#1E2E36"/><path d="M67.788 41.038h-2.233a1.172 1.172 0 010-2.343h2.233a1.172 1.172 0 110 2.343zM50.062 41.038H47.83a1.172 1.172 0 010-2.343h2.232a1.172 1.172 0 010 2.343z" fill="#1E2E36"/><path d="M65.555 38.973H50.444a1.172 1.172 0 01-.966-1.836c1.64-2.385 4.905-3.867 8.522-3.867s6.882 1.482 8.521 3.867a1.172 1.172 0 01-.966 1.836zm-11.964-2.344h8.818a10.076 10.076 0 00-8.818 0z" fill="#1E2E36"/><path d="M56.569 35.703c-.287 0-.565-.106-.779-.297a3.329 3.329 0 114.42 0 1.172 1.172 0 11-1.557-1.751.985.985 0 10-1.305 0 1.172 1.172 0 01-.78 2.047zM13.903 49.334h-4.95a1.172 1.172 0 01-1.172-1.172V35.575c0-.647.525-1.171 1.172-1.171h4.95c.647 0 1.172.524 1.172 1.171v12.587c0 .648-.525 1.172-1.172 1.172zm-3.778-2.343h2.606V36.747h-2.606v10.244z" fill="#1E2E36"/><path d="M8.953 49.334h-4.95a1.172 1.172 0 01-1.171-1.172V35.575c0-.647.524-1.171 1.171-1.171h4.95c.647 0 1.172.524 1.172 1.171v12.587c0 .648-.525 1.172-1.172 1.172zm-3.778-2.343h2.606V36.747H5.175v10.244zM24.774 49.334h-2.21a4.056 4.056 0 01-4.05-4.05v-4.11c0-.647.524-1.172 1.171-1.172h7.968c.647 0 1.172.525 1.172 1.172v4.11a4.055 4.055 0 01-4.05 4.05zm-3.916-6.988v2.937a1.709 1.709 0 001.707 1.707h2.21a1.709 1.709 0 001.707-1.707v-2.937h-5.624z" fill="#1E2E36"/><path d="M28.339 42.346H19a2.216 2.216 0 01-2.213-2.213v-1.216A2.216 2.216 0 0119 36.704h9.339a2.216 2.216 0 012.213 2.213v1.215a2.216 2.216 0 01-2.213 2.214zm-9.209-2.344h9.079v-.955H19.13v.955zM77.97 49.334h-6.034a1.172 1.172 0 01-1.172-1.172v-8.246c0-.647.525-1.172 1.172-1.172h6.034c.647 0 1.172.524 1.172 1.172v8.246c0 .648-.525 1.172-1.172 1.172zm-4.862-2.344h3.69v-5.902h-3.69v5.902z" fill="#1E2E36"/><path d="M77.97 41.087h-6.034a1.172 1.172 0 01-1.172-1.171v-3.603c0-.647.525-1.172 1.172-1.172h6.034c.647 0 1.172.525 1.172 1.172v3.603c0 .647-.525 1.172-1.172 1.172zm-4.862-2.343h3.69v-1.259h-3.69v1.259zM92.437 45.37c-1.915 0-3.414-1.842-3.414-4.195s1.5-4.196 3.414-4.196c1.915 0 3.414 1.843 3.414 4.196 0 2.353-1.5 4.196-3.414 4.196zm0-6.047c-.505 0-1.07.792-1.07 1.852s.565 1.852 1.07 1.852c.505 0 1.07-.792 1.07-1.852s-.565-1.852-1.07-1.852z" fill="#1E2E36"/><path d="M92.437 39.3c-.546 0-1.02-.377-1.142-.91l-1.791-7.814a3.01 3.01 0 115.867 0l-1.792 7.814c-.122.533-.596.91-1.142.91zm0-10.061a.666.666 0 00-.649.814l.649 2.83.649-2.83a.666.666 0 00-.65-.815zM84.008 39.3c-.546 0-1.02-.377-1.142-.91l-1.792-7.813a3.01 3.01 0 115.867 0L85.15 38.39c-.122.533-.596.91-1.142.91zm0-10.061a.666.666 0 00-.649.814l.649 2.831.649-2.83a.666.666 0 00-.65-.815z" fill="#1E2E36"/><path d="M86.7 43.088h-5.385a1.172 1.172 0 01-1.16-1.006 4.714 4.714 0 011.083-3.765c.757-.873 1.767-1.374 2.77-1.374 1.003 0 2.013.5 2.77 1.374a4.714 4.714 0 011.083 3.765 1.172 1.172 0 01-1.16 1.006zm-4.165-2.344h2.945a2.274 2.274 0 00-.473-.892c-.298-.343-.69-.566-1-.566-.308 0-.7.222-.998.566a2.277 2.277 0 00-.474.892z" fill="#1E2E36"/></svg><svg fill="none" viewBox="0 0 100 94" id="kitchen2" xmlns="http://www.w3.org/2000/svg"><path d="M67.788 88.13H32.212a1.172 1.172 0 01-1.172-1.171V59.713c0-.647.525-1.172 1.172-1.172h35.576c.647 0 1.172.524 1.172 1.172v27.245c0 .647-.525 1.171-1.172 1.171zm-34.404-2.343h33.232V60.886H33.384v24.9z" fill="#44C697"/><path d="M67.788 93.145H32.212a1.172 1.172 0 01-1.172-1.172v-5.015c0-.647.525-1.172 1.172-1.172h35.576c.647 0 1.172.525 1.172 1.172v5.015c0 .647-.525 1.172-1.172 1.172zM33.384 90.8h33.232v-2.67H33.384v2.67zM67.788 60.886H32.212a1.172 1.172 0 01-1.172-1.172V48.162c0-.647.525-1.172 1.172-1.172h35.576c.647 0 1.172.525 1.172 1.172v11.552c0 .647-.525 1.172-1.172 1.172zm-34.404-2.344h33.232v-9.208H33.384v9.208z" fill="#44C697"/><path d="M50 57.736a3.798 3.798 0 110-7.596 3.798 3.798 0 010 7.596zm0-5.252a1.454 1.454 0 100 2.908 1.454 1.454 0 000-2.908zM59.867 57.736a3.798 3.798 0 110-7.596 3.798 3.798 0 010 7.596zm0-5.252a1.454 1.454 0 100 2.908 1.454 1.454 0 000-2.908zM40.133 57.736a3.798 3.798 0 110-7.596 3.798 3.798 0 010 7.596zm0-5.252a1.454 1.454 0 100 2.908 1.454 1.454 0 000-2.908zM60.909 67.737H39.092a2.756 2.756 0 010-5.512h21.817a2.756 2.756 0 11.002 5.512h-.002zm-21.817-3.169a.412.412 0 000 .825h21.817a.412.412 0 100-.825H39.092z" fill="#44C697"/><path d="M59.867 84.389H40.133a1.172 1.172 0 01-1.172-1.172V66.565c0-.647.525-1.172 1.172-1.172h19.734c.647 0 1.172.525 1.172 1.172v16.652c0 .647-.525 1.172-1.172 1.172zm-18.562-2.344h17.39V67.737h-17.39v14.308zM42.191 49.334a1.172 1.172 0 01-1.172-1.172v-2.908a1.172 1.172 0 012.344 0v2.908c0 .648-.524 1.172-1.172 1.172zM47.747 49.334a1.172 1.172 0 01-1.172-1.172v-1.736h-1.563a1.172 1.172 0 010-2.344h2.735c.647 0 1.172.525 1.172 1.172v2.908c0 .648-.525 1.172-1.172 1.172zM36.636 49.334a1.172 1.172 0 01-1.172-1.172v-2.908c0-.647.524-1.172 1.172-1.172h2.734a1.172 1.172 0 010 2.344h-1.563v1.736c0 .648-.524 1.172-1.171 1.172zM57.809 49.334a1.172 1.172 0 01-1.172-1.172v-2.908a1.172 1.172 0 012.344 0v2.908c0 .648-.525 1.172-1.172 1.172zM52.253 49.334a1.172 1.172 0 01-1.172-1.172v-2.908c0-.647.525-1.172 1.172-1.172h2.735a1.172 1.172 0 010 2.344h-1.563v1.736c0 .648-.524 1.172-1.172 1.172zM63.364 49.334a1.172 1.172 0 01-1.171-1.172v-1.736H60.63a1.172 1.172 0 010-2.344h2.734c.648 0 1.172.525 1.172 1.172v2.908c0 .648-.524 1.172-1.172 1.172zM73.452 53.602h-2.098a1.172 1.172 0 010-2.344h2.098a1.172 1.172 0 010 2.344z" fill="#44C697"/><path d="M77.018 93.145h-9.23a1.172 1.172 0 01-1.172-1.172v-43.81c0-.648.525-1.172 1.172-1.172h9.23c.647 0 1.172.524 1.172 1.171v43.81c0 .648-.525 1.173-1.172 1.173zM68.96 90.8h6.886V49.334H68.96v41.467z" fill="#44C697"/><path d="M98.828 71.24h-21.81a1.172 1.172 0 01-1.172-1.172V48.162c0-.647.525-1.172 1.172-1.172h21.81c.647 0 1.172.525 1.172 1.172v21.906c0 .647-.525 1.172-1.172 1.172zM78.19 68.896h19.466V49.334H78.19v19.562z" fill="#44C697"/><path d="M90.734 53.602h-5.621a1.172 1.172 0 010-2.344h5.62a1.172 1.172 0 010 2.344zM19.502 53.602h-5.62a1.172 1.172 0 010-2.344h5.62a1.172 1.172 0 010 2.344zM98.828 93.145h-21.81a1.172 1.172 0 01-1.172-1.172V70.068c0-.647.525-1.172 1.172-1.172h21.81c.647 0 1.172.524 1.172 1.172v21.905c0 .647-.525 1.172-1.172 1.172zM78.19 90.8h19.466V71.24H78.19V90.8z" fill="#44C697"/><path d="M90.734 75.507h-5.621a1.172 1.172 0 010-2.344h5.62a1.172 1.172 0 010 2.344zM16.692 93.145H1.172A1.172 1.172 0 010 91.973v-32.26c0-.646.525-1.171 1.172-1.171h15.52c.647 0 1.172.524 1.172 1.172v32.259c0 .647-.525 1.172-1.172 1.172zM2.344 90.8H15.52V60.886H2.344V90.8z" fill="#44C697"/><path d="M32.212 93.145h-15.52a1.172 1.172 0 01-1.172-1.172v-32.26c0-.646.525-1.171 1.172-1.171h15.52c.647 0 1.172.524 1.172 1.172v32.259c0 .647-.525 1.172-1.172 1.172zM17.864 90.8H31.04V60.886H17.864V90.8z" fill="#44C697"/><path d="M20.398 78.966a1.172 1.172 0 01-1.172-1.172v-3.901a1.172 1.172 0 012.343 0v3.901c0 .647-.524 1.172-1.171 1.172zM12.986 78.966a1.172 1.172 0 01-1.171-1.172v-3.901a1.172 1.172 0 012.343 0v3.901c0 .647-.524 1.172-1.171 1.172zM32.212 60.886H1.172A1.172 1.172 0 010 59.714V48.162c0-.647.525-1.172 1.172-1.172h31.04c.647 0 1.172.525 1.172 1.172v11.552c0 .647-.525 1.172-1.172 1.172zM2.344 58.542H31.04v-9.208H2.344v9.208zM66.467 24.777H33.533a2.496 2.496 0 01-2.493-2.493V18.92a2.495 2.495 0 012.493-2.493h32.934a2.496 2.496 0 012.493 2.493v3.365a2.496 2.496 0 01-2.493 2.493zM33.533 18.77a.15.15 0 00-.15.149v3.365a.15.15 0 00.15.15h32.934a.15.15 0 00.15-.15V18.92a.15.15 0 00-.15-.15H33.533z" fill="#44C697"/><path d="M64.024 18.77H35.976a2.47 2.47 0 01-1.522-4.414l.9-.705A14.668 14.668 0 0041.02 2.028c0-.648.525-1.172 1.172-1.172h15.618c.647 0 1.172.524 1.172 1.172a14.667 14.667 0 005.664 11.623l.9.705a2.469 2.469 0 01-1.52 4.414zM43.324 3.2a16.984 16.984 0 01-6.525 12.297l-.9.704a.126.126 0 00.077.225h28.048a.126.126 0 00.078-.224l-.9-.705A16.984 16.984 0 0156.675 3.2H43.324zM95.2 24.777H76.552a2.937 2.937 0 010-5.874H95.2a2.937 2.937 0 110 5.874zm-18.648-3.53a.593.593 0 000 1.186H95.2a.593.593 0 000-1.186H76.552zM23.448 24.777H4.8a2.937 2.937 0 010-5.874h18.648a2.937 2.937 0 110 5.874zM4.8 21.247a.593.593 0 100 1.186h18.648a.593.593 0 100-1.186H4.8z" fill="#44C697"/><path d="M21.577 21.247H16.81a1.172 1.172 0 01-1.171-1.172v-4.029c0-.647.524-1.171 1.171-1.171h4.767c.647 0 1.172.524 1.172 1.171v4.03c0 .646-.524 1.171-1.172 1.171zm-3.595-2.344h2.424v-1.685h-2.424v1.685z" fill="#44C697"/><path d="M22.7 17.218h-7.013a1.172 1.172 0 010-2.344h7.014a1.172 1.172 0 010 2.344zM11.438 21.247H6.67A1.172 1.172 0 015.5 20.075v-4.029c0-.647.524-1.171 1.171-1.171h4.768c.647 0 1.171.524 1.171 1.171v4.03c0 .646-.524 1.171-1.171 1.171zm-3.596-2.344h2.424v-1.685H7.842v1.685z" fill="#44C697"/><path d="M12.56 17.218H5.548a1.172 1.172 0 010-2.344h7.013a1.172 1.172 0 110 2.344zM21.577 17.218H16.81a1.172 1.172 0 01-1.171-1.172v-4.028c0-.648.524-1.172 1.171-1.172h4.767c.647 0 1.172.524 1.172 1.171v4.03c0 .646-.524 1.171-1.172 1.171zm-3.595-2.344h2.424V13.19h-2.424v1.685z" fill="#44C697"/><path d="M22.7 13.19h-7.013a1.172 1.172 0 010-2.344h7.014a1.172 1.172 0 010 2.343zM11.438 17.218H6.67A1.172 1.172 0 015.5 16.046v-4.028c0-.648.524-1.172 1.171-1.172h4.768c.647 0 1.171.524 1.171 1.171v4.03c0 .646-.524 1.171-1.171 1.171zm-3.596-2.344h2.424V13.19H7.842v1.685z" fill="#44C697"/><path d="M12.56 13.19H5.548a1.172 1.172 0 010-2.344h7.013a1.172 1.172 0 110 2.343zM85.876 21.247A7.564 7.564 0 0179.471 9.66c.215-.34.59-.548.992-.548H91.29c.402 0 .776.207.991.548a7.564 7.564 0 01-6.404 11.587zm-4.721-9.79a5.22 5.22 0 109.443 0h-9.443z" fill="#44C697"/><path d="M85.767 11.456a1.172 1.172 0 01-1.172-1.172v-7.54a1.172 1.172 0 012.344 0v7.54c0 .647-.525 1.172-1.172 1.172z" fill="#44C697"/><path d="M85.767 11.456a1.172 1.172 0 01-.829-2L88.993 5.4a1.172 1.172 0 011.657 1.657l-4.055 4.055c-.22.22-.517.344-.828.343z" fill="#44C697"/><path d="M85.767 11.456c-.31 0-.61-.123-.829-.343l-4.055-4.055a1.172 1.172 0 111.64-1.675l.017.017 4.056 4.056a1.172 1.172 0 01-.83 2zM60.857 46.426h-5.715a5.877 5.877 0 01-5.87-5.87V37.8c0-.647.525-1.172 1.172-1.172h15.111c.648 0 1.172.525 1.172 1.172v2.755a5.877 5.877 0 01-5.87 5.87zm-9.241-7.453v1.583a3.53 3.53 0 003.526 3.527h5.715a3.53 3.53 0 003.527-3.527v-1.583H51.616z" fill="#44C697"/><path d="M67.788 41.038h-2.233a1.172 1.172 0 010-2.343h2.233a1.172 1.172 0 110 2.343zM50.062 41.038H47.83a1.172 1.172 0 010-2.343h2.232a1.172 1.172 0 010 2.343z" fill="#44C697"/><path d="M65.555 38.973H50.444a1.172 1.172 0 01-.966-1.836c1.64-2.385 4.905-3.867 8.522-3.867s6.882 1.482 8.521 3.867a1.172 1.172 0 01-.966 1.836zm-11.964-2.344h8.818a10.076 10.076 0 00-8.818 0z" fill="#44C697"/><path d="M56.569 35.703c-.287 0-.565-.106-.779-.297a3.329 3.329 0 114.42 0 1.172 1.172 0 11-1.557-1.751.985.985 0 10-1.305 0 1.172 1.172 0 01-.78 2.047zM13.903 49.334h-4.95a1.172 1.172 0 01-1.172-1.172V35.575c0-.647.525-1.171 1.172-1.171h4.95c.647 0 1.172.524 1.172 1.171v12.587c0 .648-.525 1.172-1.172 1.172zm-3.778-2.343h2.606V36.747h-2.606v10.244z" fill="#44C697"/><path d="M8.953 49.334h-4.95a1.172 1.172 0 01-1.171-1.172V35.575c0-.647.524-1.171 1.171-1.171h4.95c.647 0 1.172.524 1.172 1.171v12.587c0 .648-.525 1.172-1.172 1.172zm-3.778-2.343h2.606V36.747H5.175v10.244zM24.774 49.334h-2.21a4.056 4.056 0 01-4.05-4.05v-4.11c0-.647.524-1.172 1.171-1.172h7.968c.647 0 1.172.525 1.172 1.172v4.11a4.055 4.055 0 01-4.05 4.05zm-3.916-6.988v2.937a1.709 1.709 0 001.707 1.707h2.21a1.709 1.709 0 001.707-1.707v-2.937h-5.624z" fill="#44C697"/><path d="M28.339 42.346H19a2.216 2.216 0 01-2.213-2.213v-1.216A2.216 2.216 0 0119 36.704h9.339a2.216 2.216 0 012.213 2.213v1.215a2.216 2.216 0 01-2.213 2.214zm-9.209-2.344h9.079v-.955H19.13v.955zM77.97 49.334h-6.034a1.172 1.172 0 01-1.172-1.172v-8.246c0-.647.525-1.172 1.172-1.172h6.034c.647 0 1.172.524 1.172 1.172v8.246c0 .648-.525 1.172-1.172 1.172zm-4.862-2.344h3.69v-5.902h-3.69v5.902z" fill="#44C697"/><path d="M77.97 41.087h-6.034a1.172 1.172 0 01-1.172-1.171v-3.603c0-.647.525-1.172 1.172-1.172h6.034c.647 0 1.172.525 1.172 1.172v3.603c0 .647-.525 1.172-1.172 1.172zm-4.862-2.343h3.69v-1.259h-3.69v1.259zM92.437 45.37c-1.915 0-3.414-1.842-3.414-4.195s1.5-4.196 3.414-4.196c1.915 0 3.414 1.843 3.414 4.196 0 2.353-1.5 4.196-3.414 4.196zm0-6.047c-.505 0-1.07.792-1.07 1.852s.565 1.852 1.07 1.852c.505 0 1.07-.792 1.07-1.852s-.565-1.852-1.07-1.852z" fill="#44C697"/><path d="M92.437 39.3c-.546 0-1.02-.377-1.142-.91l-1.791-7.814a3.01 3.01 0 115.867 0l-1.792 7.814c-.122.533-.596.91-1.142.91zm0-10.061a.666.666 0 00-.649.814l.649 2.83.649-2.83a.666.666 0 00-.65-.815zM84.008 39.3c-.546 0-1.02-.377-1.142-.91l-1.792-7.813a3.01 3.01 0 115.867 0L85.15 38.39c-.122.533-.596.91-1.142.91zm0-10.061a.666.666 0 00-.649.814l.649 2.831.649-2.83a.666.666 0 00-.65-.815z" fill="#44C697"/><path d="M86.7 43.088h-5.385a1.172 1.172 0 01-1.16-1.006 4.714 4.714 0 011.083-3.765c.757-.873 1.767-1.374 2.77-1.374 1.003 0 2.013.5 2.77 1.374a4.714 4.714 0 011.083 3.765 1.172 1.172 0 01-1.16 1.006zm-4.165-2.344h2.945a2.274 2.274 0 00-.473-.892c-.298-.343-.69-.566-1-.566-.308 0-.7.222-.998.566a2.277 2.277 0 00-.474.892z" fill="#44C697"/></svg><svg fill="none" viewBox="0 0 125 75" id="logo" xmlns="http://www.w3.org/2000/svg"><path d="M31.833 29.488h56.55v-7.981h-56.55V8.042h56.55V.061H27.478c-2.024 0-3.68 1.645-3.68 3.655v39.298h8.035V29.488z" fill="#44C697"/><path d="M97.584 0h-4.417v42.953h8.035V3.656C101.264 1.645 99.608 0 97.584 0z" fill="#1E2E36"/><path d="M107.581 27.965V49.29H17.419V27.965H4.6a4.579 4.579 0 00-4.6 4.57v12.124c0 2.559 2.085 4.57 4.6 4.57h2.944l1.288 14.987V75h3.312l3.864-10.784h92.984L112.856 75h3.312V64.216l1.288-14.988h2.944c2.576 0 4.6-2.071 4.6-4.57V32.536c0-2.56-2.085-4.57-4.6-4.57h-12.819z" fill="#1E2E36"/></svg><svg fill="none" viewBox="0 0 125 75" id="logo2" xmlns="http://www.w3.org/2000/svg"><path d="M31.833 29.488h56.55v-7.981h-56.55V8.042h56.55V.061H27.478c-2.024 0-3.68 1.645-3.68 3.656v39.297h8.035V29.488z" fill="#44C697"/><path d="M97.584 0h-4.417v42.953h8.035V3.656C101.264 1.645 99.608 0 97.584 0z" fill="#fff"/><path d="M107.581 27.965v21.324H17.419V27.965H4.6a4.579 4.579 0 00-4.6 4.57v12.124c0 2.559 2.085 4.57 4.6 4.57h2.944l1.288 14.987V75h3.312l3.864-10.784h92.984L112.856 75h3.312V64.216l1.288-14.988h2.944c2.576 0 4.6-2.071 4.6-4.57V32.535c0-2.559-2.085-4.57-4.6-4.57h-12.819z" fill="#fff"/></svg><svg fill="none" viewBox="0 0 20 21" id="logo3" xmlns="http://www.w3.org/2000/svg"><path d="M11.107 0C6.03 1.728 1.747 5.25 0 10.5c1.726 5.19 5.97 8.752 11.107 10.5 4.569-3.554 7.06-6.409 8.893-10.5-2.63-1.782-3.736-2.7-5.869-5.458-2.857 1.34-5.345 2.9-7.548 5.401.79 1.137 2.104 2.197 3.165 3.07 1.547-1.148 2.727-2.266 3.49-3.225.48.591 1.02.984 1.535 1.313-1.33 2.281-2.821 3.534-4.663 4.73-2.767-1.477-4.99-4.035-6.072-6.198 2.026-3.371 5.204-5.647 8.815-6.915C12.268 2.184 11.5 1.22 11.107 0z" fill="#FFD001"/></svg><svg fill="none" viewBox="0 0 20 24" id="point" xmlns="http://www.w3.org/2000/svg"><path fill-rule="evenodd" clip-rule="evenodd" d="M10 1.75A8.25 8.25 0 001.75 10c0 3.198 2.074 6.266 4.294 8.61A29.671 29.671 0 0010 22.082a29.672 29.672 0 003.956-3.473c2.22-2.344 4.294-5.412 4.294-8.61A8.25 8.25 0 0010 1.75zM10 23l-.416.624-.003-.002-.006-.004-.022-.015a12.384 12.384 0 01-.379-.267 31.174 31.174 0 01-4.219-3.696C2.676 17.235.25 13.803.25 10a9.75 9.75 0 0119.5 0c0 3.802-2.426 7.234-4.706 9.64a31.173 31.173 0 01-4.218 3.697 18.242 18.242 0 01-.379.266l-.022.015-.006.004-.002.001s-.001.001-.417-.623zm0 0l.416.624a.75.75 0 01-.832 0L10 23z" fill="#fff"/><path fill-rule="evenodd" clip-rule="evenodd" d="M10 7.75a2.25 2.25 0 100 4.5 2.25 2.25 0 000-4.5zM6.25 10a3.75 3.75 0 117.5 0 3.75 3.75 0 01-7.5 0z" fill="#fff"/></svg><svg fill="none" viewBox="0 0 24 24" id="smartphone" xmlns="http://www.w3.org/2000/svg"><path d="M17 2H7a2 2 0 00-2 2v16a2 2 0 002 2h10a2 2 0 002-2V4a2 2 0 00-2-2zM12 18h.01" stroke="#1E2E36" stroke-width="1.5" stroke-linecap="round" stroke-linejoin="round"/></svg><svg fill="none" viewBox="0 0 24 24" id="smartphone2" xmlns="http://www.w3.org/2000/svg"><path d="M17 2H7a2 2 0 00-2 2v16a2 2 0 002 2h10a2 2 0 002-2V4a2 2 0 00-2-2zM12 18h.01" stroke="#44C697" stroke-width="1.5" stroke-linecap="round" stroke-linejoin="round"/></svg><svg fill="#1E2E36" viewBox="0 0 100 84" id="sof" xmlns="http://www.w3.org/2000/svg"><path d="M46.666 79.18H16.765a4.511 4.511 0 01-4.507-4.507V63.057a4.512 4.512 0 014.507-4.507h29.9a4.512 4.512 0 014.507 4.507v11.616a4.511 4.511 0 01-4.506 4.506zM16.765 60.893a2.165 2.165 0 00-2.163 2.163v11.615a2.165 2.165 0 002.163 2.163h29.9a2.165 2.165 0 002.163-2.162V63.056a2.165 2.165 0 00-2.163-2.163h-29.9z"/><path d="M10.095 79.18H4.506A4.512 4.512 0 010 74.672V52.436a4.512 4.512 0 014.506-4.507h5.59a4.511 4.511 0 014.506 4.507v22.237a4.511 4.511 0 01-4.507 4.506zM4.506 50.272a2.165 2.165 0 00-2.162 2.163v22.237a2.165 2.165 0 002.162 2.162h5.59a2.165 2.165 0 002.162-2.162V52.436a2.165 2.165 0 00-2.163-2.163H4.506z"/><path d="M86.57 70.037H13.43a1.172 1.172 0 010-2.344h73.14a1.172 1.172 0 110 2.344zM46.666 60.894H16.765a4.511 4.511 0 01-4.507-4.506V38.54a4.511 4.511 0 014.507-4.507h29.9a4.511 4.511 0 014.507 4.507v17.847a4.511 4.511 0 01-4.506 4.506zM16.765 36.378a2.165 2.165 0 00-2.163 2.162v17.847a2.165 2.165 0 002.163 2.163h29.9a2.165 2.165 0 002.163-2.163V38.541a2.165 2.165 0 00-2.163-2.163h-29.9z"/><path d="M83.235 60.894h-29.9a4.511 4.511 0 01-4.507-4.506V38.54a4.511 4.511 0 014.506-4.507h29.901a4.511 4.511 0 014.507 4.507v17.847a4.511 4.511 0 01-4.507 4.506zm-29.9-24.516a2.165 2.165 0 00-2.163 2.162v17.847a2.165 2.165 0 002.163 2.163h29.9a2.165 2.165 0 002.163-2.163V38.541a2.165 2.165 0 00-2.163-2.163h-29.9z"/><path d="M83.235 79.18h-29.9a4.511 4.511 0 01-4.507-4.507V63.057a4.512 4.512 0 014.506-4.507h29.901a4.512 4.512 0 014.507 4.507v11.616a4.511 4.511 0 01-4.507 4.506zm-29.9-18.286a2.165 2.165 0 00-2.163 2.163v11.615a2.165 2.165 0 002.163 2.163h29.9a2.165 2.165 0 002.163-2.162V63.056a2.165 2.165 0 00-2.163-2.163h-29.9z"/><path d="M95.493 79.18h-5.588a4.512 4.512 0 01-4.507-4.507V52.436a4.511 4.511 0 014.507-4.507h5.588A4.512 4.512 0 01100 52.436v22.237a4.512 4.512 0 01-4.507 4.506zm-5.588-28.907a2.165 2.165 0 00-2.163 2.163v22.237a2.165 2.165 0 002.162 2.162h5.59a2.165 2.165 0 002.162-2.162V52.436a2.165 2.165 0 00-2.163-2.163h-5.588zM52.74 60.894h-5.48a1.172 1.172 0 010-2.344h5.48a1.172 1.172 0 010 2.344zM71.45 30.639h-42.9a1.172 1.172 0 01-1.172-1.172V1.625c0-.647.524-1.172 1.171-1.172H71.45c.648 0 1.172.525 1.172 1.172v27.842c0 .647-.524 1.172-1.172 1.172zm-41.729-2.344H70.28V2.796H29.722v25.499z"/><path d="M67.547 26.735H32.453a1.172 1.172 0 01-1.172-1.172V5.528c0-.647.525-1.172 1.172-1.172h35.094c.647 0 1.172.525 1.172 1.172v20.035c0 .647-.525 1.172-1.172 1.172zm-33.922-2.344h32.75V6.701h-32.75v17.69z"/><path d="M36.654 22.44a1.172 1.172 0 01-.83-2l6.027-6.027a1.172 1.172 0 011.657 0l3.657 3.657a1.172 1.172 0 01-1.657 1.657l-2.828-2.828-5.198 5.198c-.22.22-.518.343-.828.343z"/><path d="M63.346 22.38c-.31 0-.61-.123-.828-.343l-4.279-4.28c-1.605-1.604-3.21-3.209-4.813-4.814l-.752-.751-.71-.71-6.522 6.522a1.172 1.172 0 01-1.657-1.658l7.35-7.35a1.172 1.172 0 011.659.001l1.537 1.537.753.752c1.603 1.605 3.207 3.21 4.813 4.813 1.425 1.427 2.85 2.854 4.278 4.28a1.172 1.172 0 01-.829 2z"/><path d="M59.069 18.1c-.31 0-.609-.123-.829-.343-1.607-1.604-3.212-3.21-4.814-4.814a1.172 1.172 0 01-.256-1.273 4.862 4.862 0 116.343 6.343c-.141.058-.292.087-.444.087zm-3.351-6.179c1.18 1.182 2.362 2.363 3.544 3.545a2.52 2.52 0 10-3.544-3.545zM92.699 83.547a3.078 3.078 0 01-2.992-2.337l-.728-2.92a1.172 1.172 0 011.138-1.455h5.164a1.172 1.172 0 011.138 1.456l-.728 2.919a3.078 3.078 0 01-2.992 2.337zm-1.082-4.368l.365 1.464a.74.74 0 001.434 0l.365-1.464h-2.165zM7.301 83.547a3.078 3.078 0 01-2.992-2.337l-.728-2.92a1.172 1.172 0 011.138-1.455h5.164a1.172 1.172 0 011.138 1.456l-.728 2.919A3.078 3.078 0 017.3 83.547zm-1.082-4.368l.365 1.464a.74.74 0 001.434 0l.365-1.464H6.22z"/></svg><svg fill="#44c697" viewBox="0 0 100 84" id="sof2" xmlns="http://www.w3.org/2000/svg"><path d="M46.666 79.18H16.765a4.511 4.511 0 01-4.507-4.507V63.057a4.512 4.512 0 014.507-4.507h29.9a4.512 4.512 0 014.507 4.507v11.616a4.511 4.511 0 01-4.506 4.506zM16.765 60.893a2.165 2.165 0 00-2.163 2.163v11.615a2.165 2.165 0 002.163 2.163h29.9a2.165 2.165 0 002.163-2.162V63.056a2.165 2.165 0 00-2.163-2.163h-29.9z"/><path d="M10.095 79.18H4.506A4.512 4.512 0 010 74.672V52.436a4.512 4.512 0 014.506-4.507h5.59a4.511 4.511 0 014.506 4.507v22.237a4.511 4.511 0 01-4.507 4.506zM4.506 50.272a2.165 2.165 0 00-2.162 2.163v22.237a2.165 2.165 0 002.162 2.162h5.59a2.165 2.165 0 002.162-2.162V52.436a2.165 2.165 0 00-2.163-2.163H4.506z"/><path d="M86.57 70.037H13.43a1.172 1.172 0 010-2.344h73.14a1.172 1.172 0 110 2.344zM46.666 60.894H16.765a4.511 4.511 0 01-4.507-4.506V38.54a4.511 4.511 0 014.507-4.507h29.9a4.511 4.511 0 014.507 4.507v17.847a4.511 4.511 0 01-4.506 4.506zM16.765 36.378a2.165 2.165 0 00-2.163 2.162v17.847a2.165 2.165 0 002.163 2.163h29.9a2.165 2.165 0 002.163-2.163V38.541a2.165 2.165 0 00-2.163-2.163h-29.9z"/><path d="M83.235 60.894h-29.9a4.511 4.511 0 01-4.507-4.506V38.54a4.511 4.511 0 014.506-4.507h29.901a4.511 4.511 0 014.507 4.507v17.847a4.511 4.511 0 01-4.507 4.506zm-29.9-24.516a2.165 2.165 0 00-2.163 2.162v17.847a2.165 2.165 0 002.163 2.163h29.9a2.165 2.165 0 002.163-2.163V38.541a2.165 2.165 0 00-2.163-2.163h-29.9z"/><path d="M83.235 79.18h-29.9a4.511 4.511 0 01-4.507-4.507V63.057a4.512 4.512 0 014.506-4.507h29.901a4.512 4.512 0 014.507 4.507v11.616a4.511 4.511 0 01-4.507 4.506zm-29.9-18.286a2.165 2.165 0 00-2.163 2.163v11.615a2.165 2.165 0 002.163 2.163h29.9a2.165 2.165 0 002.163-2.162V63.056a2.165 2.165 0 00-2.163-2.163h-29.9z"/><path d="M95.493 79.18h-5.588a4.512 4.512 0 01-4.507-4.507V52.436a4.511 4.511 0 014.507-4.507h5.588A4.512 4.512 0 01100 52.436v22.237a4.512 4.512 0 01-4.507 4.506zm-5.588-28.907a2.165 2.165 0 00-2.163 2.163v22.237a2.165 2.165 0 002.162 2.162h5.59a2.165 2.165 0 002.162-2.162V52.436a2.165 2.165 0 00-2.163-2.163h-5.588zM52.74 60.894h-5.48a1.172 1.172 0 010-2.344h5.48a1.172 1.172 0 010 2.344zM71.45 30.639h-42.9a1.172 1.172 0 01-1.172-1.172V1.625c0-.647.524-1.172 1.171-1.172H71.45c.648 0 1.172.525 1.172 1.172v27.842c0 .647-.524 1.172-1.172 1.172zm-41.729-2.344H70.28V2.796H29.722v25.499z"/><path d="M67.547 26.735H32.453a1.172 1.172 0 01-1.172-1.172V5.528c0-.647.525-1.172 1.172-1.172h35.094c.647 0 1.172.525 1.172 1.172v20.035c0 .647-.525 1.172-1.172 1.172zm-33.922-2.344h32.75V6.701h-32.75v17.69z"/><path d="M36.654 22.44a1.172 1.172 0 01-.83-2l6.027-6.027a1.172 1.172 0 011.657 0l3.657 3.657a1.172 1.172 0 01-1.657 1.657l-2.828-2.828-5.198 5.198c-.22.22-.518.343-.828.343z"/><path d="M63.346 22.38c-.31 0-.61-.123-.828-.343l-4.279-4.28c-1.605-1.604-3.21-3.209-4.813-4.814l-.752-.751-.71-.71-6.522 6.522a1.172 1.172 0 01-1.657-1.658l7.35-7.35a1.172 1.172 0 011.659.001l1.537 1.537.753.752c1.603 1.605 3.207 3.21 4.813 4.813 1.425 1.427 2.85 2.854 4.278 4.28a1.172 1.172 0 01-.829 2z"/><path d="M59.069 18.1c-.31 0-.609-.123-.829-.343-1.607-1.604-3.212-3.21-4.814-4.814a1.172 1.172 0 01-.256-1.273 4.862 4.862 0 116.343 6.343c-.141.058-.292.087-.444.087zm-3.351-6.179c1.18 1.182 2.362 2.363 3.544 3.545a2.52 2.52 0 10-3.544-3.545zM92.699 83.547a3.078 3.078 0 01-2.992-2.337l-.728-2.92a1.172 1.172 0 011.138-1.455h5.164a1.172 1.172 0 011.138 1.456l-.728 2.919a3.078 3.078 0 01-2.992 2.337zm-1.082-4.368l.365 1.464a.74.74 0 001.434 0l.365-1.464h-2.165zM7.301 83.547a3.078 3.078 0 01-2.992-2.337l-.728-2.92a1.172 1.172 0 011.138-1.455h5.164a1.172 1.172 0 011.138 1.456l-.728 2.919A3.078 3.078 0 017.3 83.547zm-1.082-4.368l.365 1.464a.74.74 0 001.434 0l.365-1.464H6.22z"/></svg><svg fill="none" viewBox="0 0 22 19" id="telegram" xmlns="http://www.w3.org/2000/svg"><path fill-rule="evenodd" clip-rule="evenodd" d="M8.674 12.069v-.001l9.273-8.369c.407-.361-.089-.537-.629-.21L5.873 10.71.929 9.167c-1.068-.327-1.076-1.06.24-1.588L20.432.151c.88-.4 1.73.211 1.394 1.558l-3.281 15.46c-.23 1.099-.893 1.362-1.813.854l-4.998-3.692-2.402 2.336-.022.022c-.269.261-.491.478-.978.478l.34-5.098z" fill="#1E2E36"/></svg><svg fill="none" viewBox="0 0 22 19" id="telegram2" xmlns="http://www.w3.org/2000/svg"><path fill-rule="evenodd" clip-rule="evenodd" d="M8.674 12.068l9.273-8.37c.407-.36-.089-.536-.629-.209L5.873 10.71.929 9.167c-1.068-.327-1.076-1.06.24-1.588L20.433.15c.88-.399 1.729.212 1.393 1.558L18.546 17.17c-.23 1.099-.893 1.361-1.813.854l-4.998-3.692-2.402 2.335-.022.022c-.269.262-.491.478-.978.478l.34-5.098z" fill="#fff"/></svg><svg fill="none" viewBox="0 0 20 22" id="timetable" xmlns="http://www.w3.org/2000/svg"><path fill-rule="evenodd" clip-rule="evenodd" d="M3 3.75c-.69 0-1.25.56-1.25 1.25v14c0 .69.56 1.25 1.25 1.25h14c.69 0 1.25-.56 1.25-1.25V5c0-.69-.56-1.25-1.25-1.25H3zM.25 5A2.75 2.75 0 013 2.25h14A2.75 2.75 0 0119.75 5v14A2.75 2.75 0 0117 21.75H3A2.75 2.75 0 01.25 19V5z" fill="#fff"/><path fill-rule="evenodd" clip-rule="evenodd" d="M14 .25a.75.75 0 01.75.75v4a.75.75 0 01-1.5 0V1A.75.75 0 0114 .25zM6 .25a.75.75 0 01.75.75v4a.75.75 0 01-1.5 0V1A.75.75 0 016 .25zM.25 9A.75.75 0 011 8.25h18a.75.75 0 010 1.5H1A.75.75 0 01.25 9z" fill="#fff"/></svg></svg>